<svg xmlns="http://www.w3.org/2000/svg" viewBox="0 0 24 24" fill="#ffffff">
    <path d="M19.999 0H4.001C1.791 0 0 1.791 0 4.001v15.998C0 22.209 1.791 24 4.001 24h15.998C22.209 24 24 22.209 24 19.999V4.001C24 1.791 22.209 0 19.999 0zm-11.08 20H7.169v-10.25h2.75V20zm-1.375-11.657c-.881 0-1.592-.725-1.592-1.63 0-.905.711-1.63 1.592-1.63s1.592.725 1.592 1.63c0 .905-.711 1.63-1.592 1.63zm13.3 11.657h-2.75v-5.25c0-1.258-.021-2.872-1.743-2.872-1.745 0-2.01 1.209-2.01 2.458v5.664h-2.75v-10.25h2.75v1.405h.038c.382-.726 1.316-1.495 2.707-1.495 2.897 0 3.435 1.903 3.435 4.384v6.356z"/>
</svg>
